<svg xmlns="http://www.w3.org/2000/svg"  viewBox="0 0 48 48" width="48px" height="48px" baseProfile="basic"><path fill="#275bff" d="M39.358,37.585l-3.308-5.513c-1.938,0.264-3.62,1.317-4.716,2.829l3.308,5.514 C36.498,43.508,41.247,40.732,39.358,37.585z" opacity=".4"/><path fill="#275bff" d="M12,26.75h5.438C17.799,25.906,18,24.976,18,24s-0.201-1.906-0.562-2.75H12 C8.36,21.25,8.365,26.75,12,26.75z" opacity=".4"/><path fill="#275bff" d="M36.05,15.928l3.308-5.513c1.864-3.107-2.839-5.964-4.716-2.831l-3.308,5.514 C32.43,14.611,34.112,15.665,36.05,15.928z" opacity=".4"/><path fill="#275bff" d="M30.881,35.604l3.118,5.197c2.372,3.953,8.395,0.385,6.002-3.603l-3.116-5.193 C34.301,32.048,32.058,33.487,30.881,35.604z" opacity=".3"/><path fill="#275bff" d="M12,27.5h5.056C17.653,26.469,18,25.276,18,24s-0.347-2.469-0.944-3.5H12 C7.368,20.5,7.372,27.5,12,27.5z" opacity=".3"/><path fill="#275bff" d="M36.885,15.994l3.116-5.193c2.366-3.942-3.607-7.601-6.002-3.603l-3.118,5.197 C32.058,14.513,34.301,15.952,36.885,15.994z" opacity=".3"/><path fill="#275bff" d="M12,28.25h4.553C17.457,27.071,18,25.601,18,24s-0.543-3.071-1.447-4.25H12 C6.376,19.75,6.379,28.25,12,28.25z" opacity=".2"/><path fill="#275bff" d="M30.497,36.422l2.859,4.766c2.889,4.814,10.186,0.454,7.288-4.375l-2.86-4.766 C37.526,32.018,37.266,32,37,32C34.046,32,31.524,33.833,30.497,36.422z" opacity=".2"/><path fill="#275bff" d="M37,16c0.266,0,0.526-0.018,0.784-0.047l2.86-4.766 c2.867-4.777-4.375-9.239-7.288-4.375l-2.859,4.766C31.524,14.167,34.046,16,37,16z" opacity=".2"/><path fill="#275bff" d="M37,16c0.613,0,1.205-0.087,1.772-0.235l2.515-4.192 c3.368-5.612-5.143-10.877-8.574-5.146l-2.517,4.194C30.929,13.704,33.693,16,37,16z" opacity=".1"/><path fill="#275bff" d="M12,29h3.894C17.192,27.729,18,25.96,18,24c0-1.96-0.808-3.729-2.106-5H12 C5.385,19,5.386,29,12,29z" opacity=".1"/><path fill="#275bff" d="M30.196,37.379l2.517,4.194c3.405,5.674,11.976,0.522,8.574-5.146l-2.515-4.192 C38.205,32.087,37.613,32,37,32C33.693,32,30.929,34.296,30.196,37.379z" opacity=".1"/><linearGradient id="aL5siF0dYJKdACoAZUkjJa" x1="13.913" x2="49.222" y1="24" y2="24" gradientUnits="userSpaceOnUse"><stop offset="0" stop-color="#009cfc"/><stop offset=".275" stop-color="#26b3fd"/><stop offset=".885" stop-color="#84edff"/><stop offset="1" stop-color="#97f8ff"/></linearGradient><path fill="url(#aL5siF0dYJKdACoAZUkjJa)" d="M30.332,24l8.383-13.971c0.568-0.947,0.262-2.176-0.686-2.744	c-0.948-0.568-2.176-0.263-2.744,0.686L26.868,22H12c-1.104,0-2,0.896-2,2s0.896,2,2,2h14.868l8.418,14.029	C35.66,40.654,36.322,41,37.002,41c0.351,0,0.705-0.092,1.027-0.285c0.947-0.568,1.254-1.797,0.686-2.744L30.332,24z"/><g><path fill="#247dff" d="M35.053,16.132l3.662-6.103c0.568-0.947,0.262-2.176-0.686-2.744 c-0.948-0.568-2.176-0.263-2.744,0.686l-3.661,6.103C32.543,15.048,33.723,15.769,35.053,16.132z" opacity=".4"/><path fill="#247dff" d="M34.839,16.49l3.876-6.46c0.568-0.947,0.262-2.176-0.686-2.744 c-0.948-0.568-2.176-0.263-2.744,0.686l-3.876,6.46C32.342,15.39,33.518,16.108,34.839,16.49z" opacity=".3"/><path fill="#247dff" d="M34.624,16.847l4.091-6.817c0.568-0.947,0.262-2.176-0.686-2.744 c-0.948-0.568-2.176-0.263-2.744,0.686l-4.09,6.817C32.139,15.734,33.313,16.449,34.624,16.847z" opacity=".2"/><path fill="#247dff" d="M38.715,10.029c0.568-0.947,0.262-2.176-0.686-2.744 c-0.948-0.568-2.176-0.263-2.744,0.686l-4.3,7.166c0.954,0.935,2.123,1.651,3.427,2.064L38.715,10.029z" opacity=".1"/><path fill="#247dff" d="M38.715,10.029c0.568-0.947,0.262-2.176-0.686-2.744 c-0.948-0.568-2.176-0.263-2.744,0.686l-4.509,7.515c0.963,0.925,2.129,1.638,3.427,2.063L38.715,10.029z" opacity=".05"/></g><g><path fill="#247dff" d="M10,24c0,1.104,0.896,2,2,2h6.119c0.179-0.637,0.281-1.306,0.281-2 c0-0.694-0.103-1.363-0.281-2H12C10.896,22,10,22.896,10,24z" opacity=".4"/><path fill="#247dff" d="M10,24c0,1.104,0.896,2,2,2h6.531c0.17-0.639,0.269-1.307,0.269-2s-0.099-1.361-0.269-2 H12C10.896,22,10,22.896,10,24z" opacity=".3"/><path fill="#247dff" d="M10,24c0,1.104,0.896,2,2,2h6.943c0.161-0.641,0.257-1.309,0.257-2 s-0.095-1.359-0.257-2H12C10.896,22,10,22.896,10,24z" opacity=".2"/><path fill="#247dff" d="M10,24c0,1.104,0.896,2,2,2h7.356c0.154-0.643,0.244-1.31,0.244-2s-0.09-1.357-0.244-2 H12C10.896,22,10,22.896,10,24z" opacity=".1"/><path fill="#247dff" d="M10,24c0,1.104,0.896,2,2,2h7.768C19.915,25.356,20,24.688,20,24s-0.085-1.356-0.232-2 H12C10.896,22,10,22.896,10,24z" opacity=".05"/></g><g><path fill="#247dff" d="M37.002,41c0.351,0,0.705-0.092,1.027-0.285c0.947-0.568,1.254-1.797,0.686-2.744 l-3.662-6.103c-1.33,0.363-2.51,1.085-3.429,2.059l3.662,6.103C35.66,40.654,36.322,41,37.002,41z" opacity=".4"/><path fill="#247dff" d="M37.002,41c0.351,0,0.705-0.092,1.027-0.285c0.947-0.568,1.254-1.797,0.686-2.744 l-3.876-6.46c-1.321,0.381-2.497,1.099-3.429,2.059l3.876,6.46C35.66,40.654,36.322,41,37.002,41z" opacity=".3"/><path fill="#247dff" d="M37.002,41c0.351,0,0.705-0.092,1.027-0.285c0.947-0.568,1.254-1.797,0.686-2.744 l-4.091-6.817c-1.311,0.397-2.485,1.113-3.429,2.059l4.09,6.817C35.66,40.654,36.322,41,37.002,41z" opacity=".2"/><path fill="#247dff" d="M37.002,41c0.351,0,0.705-0.092,1.027-0.285c0.947-0.568,1.254-1.797,0.686-2.744 l-4.303-7.171c-1.304,0.412-2.472,1.128-3.426,2.063l4.3,7.167C35.66,40.654,36.322,41,37.002,41z" opacity=".1"/><path fill="#247dff" d="M37.002,41c0.351,0,0.705-0.092,1.027-0.285c0.947-0.568,1.254-1.797,0.686-2.744 l-4.512-7.52c-1.297,0.426-2.463,1.139-3.427,2.063l4.509,7.515C35.66,40.654,36.322,41,37.002,41z" opacity=".05"/></g><linearGradient id="aL5siF0dYJKdACoAZUkjJb" x1="-8.783" x2="31.217" y1="24" y2="24" gradientUnits="userSpaceOnUse"><stop offset="0" stop-color="#dca6ff" stop-opacity=".4"/><stop offset="1" stop-color="#daa6ff" stop-opacity=".6"/></linearGradient><path fill="url(#aL5siF0dYJKdACoAZUkjJb)" d="M44,9c0,3.866-3.134,7-7,7s-7-3.134-7-7	s3.134-7,7-7S44,5.134,44,9z M37,32c-3.866,0-7,3.134-7,7s3.134,7,7,7s7-3.134,7-7S40.866,32,37,32z M11,17c-3.866,0-7,3.134-7,7	s3.134,7,7,7s7-3.134,7-7S14.866,17,11,17z"/><linearGradient id="aL5siF0dYJKdACoAZUkjJc" x1="26.019" x2="17.023" y1="25.247" y2="-13.729" gradientUnits="userSpaceOnUse"><stop offset="0" stop-color="#daa6ff" stop-opacity=".4"/><stop offset="1" stop-color="#f5ebff" stop-opacity=".2"/></linearGradient><path fill="url(#aL5siF0dYJKdACoAZUkjJc)" d="M37,2.5c3.584,0,6.5,2.916,6.5,6.5	s-2.916,6.5-6.5,6.5s-6.5-2.916-6.5-6.5S33.416,2.5,37,2.5 M11,17.5c3.584,0,6.5,2.916,6.5,6.5s-2.916,6.5-6.5,6.5	S4.5,27.584,4.5,24S7.416,17.5,11,17.5 M37,32.5c3.584,0,6.5,2.916,6.5,6.5s-2.916,6.5-6.5,6.5s-6.5-2.916-6.5-6.5	S33.416,32.5,37,32.5 M37,2c-3.866,0-7,3.134-7,7s3.134,7,7,7s7-3.134,7-7S40.866,2,37,2L37,2z M11,17c-3.866,0-7,3.134-7,7	s3.134,7,7,7s7-3.134,7-7S14.866,17,11,17L11,17z M37,32c-3.866,0-7,3.134-7,7s3.134,7,7,7s7-3.134,7-7S40.866,32,37,32L37,32z"/></svg>