<svg xmlns="http://www.w3.org/2000/svg"  viewBox="0 0 48 48" width="48px" height="48px" baseProfile="basic"><path fill="#118bef" d="M6.822,40.664c-1.475,0.125-2.791-0.556-3.725-1.578l0.007,0.023 C3.982,40.354,5.326,41,7,41h27c-2.209,0-5-1-5-6v-2c0-0.552-0.448-1-1-1H11.25v3.681C11.25,40.143,7.602,40.586,6.822,40.664z" opacity=".4"/><path fill="#118bef" d="M6.644,40.328c-1.406,0.174-2.76-0.395-3.69-1.481l0.022,0.077 C3.847,40.294,5.244,41,7,41h27c-2.209,0-5-1-5-6v-2c0-0.552-0.448-1-1-1H10.5v3.999C10.5,39.497,7.652,40.171,6.644,40.328z" opacity=".3"/><path fill="#118bef" d="M6.466,39.993c-1.337,0.224-2.73-0.234-3.654-1.384l0.033,0.125 C3.701,40.239,5.159,41,7,41h27c-2.209,0-5-1-5-6v-2c0-0.552-0.448-1-1-1H9.75v4.316C9.75,38.851,7.702,39.757,6.466,39.993z" opacity=".2"/><path fill="#118bef" d="M6.288,39.657c-1.267,0.272-2.694-0.072-3.614-1.282C3.495,40.113,5.023,41,7,41h27 c-2.209,0-5-1-5-6v-2c0-0.552-0.448-1-1-1H9v4.633C9,38.205,7.752,39.342,6.288,39.657z" opacity=".1"/><path fill="#0576e5" d="M15.438,6h27.114C44.052,6,46,7.126,46,9.876v2.037c0,0.324-0.263,0.587-0.587,0.587H19.462	c-0.324,0-0.587-0.263-0.587-0.587v-1.788C18.875,6.687,16.956,6,15.438,6z"/><linearGradient id="OxW4oj_jGkBF3bcaUjGE2a" x1="24.8" x2="24.8" y1="36.91" y2="-2.028" gradientUnits="userSpaceOnUse"><stop offset="0" stop-color="#97f8ff"/><stop offset=".115" stop-color="#84edff"/><stop offset=".725" stop-color="#26b3fd"/><stop offset="1" stop-color="#009cfc"/></linearGradient><path fill="url(#OxW4oj_jGkBF3bcaUjGE2a)" d="M15.438,6C13.539,6,12,7.539,12,9.438v25.927C12,40.788,7.553,41,7,41h27c2.761,0,5-2.239,5-5	V9.875C39,6.146,42.221,6,42.601,6H15.438z"/><path fill="#20affd" d="M18,16c0-0.552,0.448-1,1-1H32c0.552,0,1,0.448,1,1s-0.447,1-1,1H19C18.448,17,18,16.552,18,16z M28,25H19c-0.552,0-1,0.448-1,1V26c0,0.552,0.448,1,1,1H28c0.552,0,1-0.448,1-1V26C29,25.448,28.553,25,28,25z M32,20H19	c-0.552,0-1,0.448-1,1V21c0,0.552,0.448,1,1,1H32c0.552,0,1-0.448,1-1V21C33,20.448,32.553,20,32,20z"/><path fill="#24a1ff" d="M12,35.364C12,40.788,7.553,41,7,41h27c-2.064,0-4.6-1.295-4.6-6v-2 c0-0.773-0.627-1.4-1.4-1.4H12V35.364z" opacity=".4"/><path fill="#24a1ff" d="M12,35.364C12,40.788,7.553,41,7,41h27c-1.919,0-4.2-1.59-4.2-6v-2 c0-0.993-0.807-1.8-1.8-1.8H12V35.364z" opacity=".3"/><path fill="#24a1ff" d="M12,35.364C12,40.788,7.553,41,7,41h27c-1.774,0-3.8-1.885-3.8-6v-2 c0-1.214-0.987-2.2-2.2-2.2H12V35.364z" opacity=".2"/><path fill="#24a1ff" d="M12,35.364C12,40.788,7.553,41,7,41h27c-1.628,0-3.4-2.18-3.4-6v-2 c0-1.434-1.166-2.6-2.6-2.6H12V35.364z" opacity=".1"/><path fill="#24a1ff" d="M12,35.364C12,40.788,7.553,41,7,41h27c-1.483,0-3-2.476-3-6v-2c0-1.654-1.346-3-3-3 H12V35.364z" opacity=".05"/><linearGradient id="OxW4oj_jGkBF3bcaUjGE2b" x1="5.913" x2="37.913" y1="36.5" y2="36.5" gradientUnits="userSpaceOnUse"><stop offset="0" stop-color="#daa6ff" stop-opacity=".6"/><stop offset="1" stop-color="#dca6ff" stop-opacity=".4"/></linearGradient><path fill="url(#OxW4oj_jGkBF3bcaUjGE2b)" d="M34,41H7c-3,0-5-2-5-6v-2	c0-0.552,0.448-1,1-1h25c0.552,0,1,0.448,1,1v2C29,40,31.791,41,34,41z"/><linearGradient id="OxW4oj_jGkBF3bcaUjGE2c" x1="23.217" x2="8.298" y1="33.672" y2="42.366" gradientUnits="userSpaceOnUse"><stop offset="0" stop-color="#f5ebff" stop-opacity=".2"/><stop offset="1" stop-color="#daa6ff" stop-opacity=".4"/></linearGradient><path fill="url(#OxW4oj_jGkBF3bcaUjGE2c)" d="M28,32.5c0.276,0,0.5,0.224,0.5,0.5v2	c0,2.965,0.947,4.608,2.145,5.5H7c-2.902,0-4.5-1.953-4.5-5.5v-2c0-0.276,0.224-0.5,0.5-0.5H28 M28,32H3c-0.552,0-1,0.448-1,1v2	c0,4,2,6,5,6h27c-2.209,0-5-1-5-6v-2C29,32.448,28.552,32,28,32L28,32z"/></svg>